# xmcd CD database file
#
# Track frame offsets:
#	150
#	13265
#	27544
#	41237
#	55615
#	70149
#	86394
#	101379
#	114501
#	128811
#
# Disc length: 1890 seconds
#
# Revision: 0
# Processed by: cddbd v1.5.2PL0 Copyright (c) Steve Scherf et al.
# Submitted via: CDex 1.70beta2
#
DISCID=7f07600a
DTITLE=Morrison, Lance - Cdn. - Stop, Look and Listen
DYEAR=2007
DGENRE=Country
TTITLE0=gonna start drinkin
TTITLE1=love games
TTITLE2=back in love 
TTITLE3=I got a feeling 
TTITLE4=stop look listen
TTITLE5=I love u
TTITLE6=my darling
TTITLE7=free to be lonely
TTITLE8=bring me back
TTITLE9=I dont know   
EXTD=YEAR: 2007
EXTT0=
EXTT1=
EXTT2=
EXTT3=
EXTT4=
EXTT5=
EXTT6=
EXTT7=
EXTT8=
EXTT9=
PLAYORDER=
